<svg width="786" height="147" viewBox="0 0 786 147" fill="none" xmlns="http://www.w3.org/2000/svg">
<path d="M50.8427 146.644C40.8874 146.644 32.0581 144.746 24.3547 140.949C16.7698 137.034 10.7848 131.458 6.39978 124.22C2.13326 116.983 0 108.441 0 98.5932C0 89.339 2.074 81.0339 6.222 73.678C10.37 66.322 16.2957 60.5085 23.9992 56.2373C31.7026 51.9661 40.5912 49.8305 50.6649 49.8305C56.2351 49.8305 61.9237 50.483 67.7309 51.7881C73.5381 53.0932 78.338 54.7542 82.1304 56.7712L78.3972 83.6441C70.8123 80.0847 62.9311 78.3051 54.7536 78.3051C47.6428 78.3051 42.0133 80.0847 37.8653 83.6441C33.8358 87.2034 31.8211 92.0678 31.8211 98.2373C31.8211 104.525 33.8951 109.449 38.0431 113.008C42.1911 116.449 47.939 118.169 55.2869 118.169C62.7533 118.169 70.8123 116.39 79.4639 112.83L82.6637 138.992C78.5157 141.364 73.5974 143.203 67.9087 144.508C62.3385 145.932 56.6499 146.644 50.8427 146.644Z" fill="#242933"/>
<path d="M136.565 147C128.624 147 121.513 145.042 115.232 141.127C108.951 137.093 103.973 131.398 100.299 124.042C96.6253 116.686 94.7883 108.203 94.7883 98.5932C94.7883 89.5763 96.566 81.3898 100.121 74.0339C103.677 66.5593 108.714 60.6271 115.232 56.2373C121.75 51.7288 129.157 49.4746 137.453 49.4746C142.431 49.4746 147.053 50.4831 151.32 52.5C155.586 54.3983 159.142 57.1271 161.986 60.6864V0H193.985V144.153H163.941L163.586 133.653C160.86 137.924 157.127 141.246 152.386 143.619C147.764 145.873 142.49 147 136.565 147ZM145.275 118.525C150.727 118.525 155.171 116.627 158.608 112.83C162.045 109.034 163.764 104.169 163.764 98.2373C163.764 92.3051 162.045 87.4407 158.608 83.6441C155.171 79.8475 150.727 77.9492 145.275 77.9492C139.824 77.9492 135.32 79.8475 131.765 83.6441C128.328 87.4407 126.609 92.3051 126.609 98.2373C126.609 104.169 128.328 109.034 131.765 112.83C135.32 116.627 139.824 118.525 145.275 118.525Z" fill="#242933"/>
<path d="M215.717 0H247.716V144.153H215.717V0Z" fill="#242933"/>
<path d="M277.717 78.1271H262.25V52.322H277.717V28.6525H309.715V52.322H328.559V78.1271H309.715V144.153H277.717V78.1271Z" fill="#242933"/>
<path d="M398.364 147C391.371 147 385.09 145.339 379.52 142.017C373.95 138.695 369.505 134.008 366.187 127.958L365.832 144.153H351.076V0H366.187V71.3644C369.624 65.1949 374.246 60.5085 380.053 57.3051C385.979 53.983 392.675 52.322 400.141 52.322C408.082 52.322 415.252 54.2797 421.652 58.1949C428.17 62.1102 433.325 67.6864 437.118 74.9237C440.91 82.161 442.807 90.4068 442.807 99.661C442.807 107.966 440.91 115.737 437.118 122.975C433.444 130.093 428.17 135.907 421.296 140.415C414.422 144.805 406.778 147 398.364 147ZM396.23 133.475C405.356 133.475 412.822 130.331 418.63 124.042C424.437 117.754 427.34 109.627 427.34 99.661C427.34 89.6949 424.437 81.5678 418.63 75.2797C412.822 68.9915 405.356 65.8475 396.23 65.8475C387.105 65.8475 379.638 68.9915 373.831 75.2797C368.024 81.5678 365.12 89.6949 365.12 99.661C365.12 109.627 368.024 117.754 373.831 124.042C379.638 130.331 387.105 133.475 396.23 133.475Z" fill="#242933"/>
<path d="M468.607 55.1695H483.718V144.153H468.607V55.1695ZM476.073 31.322C473.111 31.322 470.622 30.3136 468.607 28.2966C466.711 26.2797 465.763 23.7288 465.763 20.6441C465.763 17.5593 466.711 15.0085 468.607 12.9915C470.622 10.9746 473.111 9.96611 476.073 9.96611C479.036 9.96611 481.466 10.9746 483.362 12.9915C485.377 15.0085 486.384 17.5593 486.384 20.6441C486.384 23.7288 485.377 26.2797 483.362 28.2966C481.466 30.3136 479.036 31.322 476.073 31.322Z" fill="#242933"/>
<path d="M537.164 147C531.594 147 526.024 146.229 520.454 144.686C515.002 143.144 510.617 141.127 507.299 138.636L509.61 125.288C513.284 128.017 517.609 130.212 522.587 131.873C527.683 133.534 532.542 134.364 537.164 134.364C543.801 134.364 548.957 133.237 552.63 130.983C556.304 128.61 558.141 125.407 558.141 121.373C558.141 118.525 557.49 116.271 556.186 114.61C555.001 112.949 552.867 111.407 549.786 109.983C546.823 108.559 542.438 107.017 536.631 105.356C526.676 102.39 519.565 98.8305 515.298 94.678C511.032 90.5254 508.899 85.1271 508.899 78.4831C508.899 70.4153 511.862 64.0678 517.787 59.4407C523.831 54.6949 532.009 52.322 542.32 52.322C547.06 52.322 551.919 52.9746 556.897 54.2797C561.875 55.5847 565.963 57.3051 569.163 59.4407L566.674 72.2542C559.089 67.3898 550.853 64.9576 541.964 64.9576C536.038 64.9576 531.476 66.0254 528.276 68.161C525.076 70.178 523.476 73.0847 523.476 76.8814C523.476 80.5593 524.839 83.4661 527.565 85.6017C530.291 87.7373 535.327 89.8729 542.675 92.0085C553.934 95.3305 561.875 99.1271 566.497 103.398C571.119 107.551 573.43 113.246 573.43 120.483C573.43 128.432 570.111 134.839 563.475 139.703C556.838 144.568 548.068 147 537.164 147Z" fill="#242933"/>
<path d="M637.776 147C629.243 147 621.421 145.042 614.31 141.127C607.318 137.093 601.688 131.458 597.422 124.22C593.274 116.983 591.2 108.797 591.2 99.661C591.2 91.2373 593.155 83.4661 597.066 76.3475C601.096 69.1102 606.666 63.2966 613.777 58.9068C620.888 54.5169 628.887 52.322 637.776 52.322C646.309 52.322 654.072 54.339 661.064 58.3729C668.175 62.2881 673.804 67.8644 677.952 75.1017C682.219 82.339 684.352 90.5254 684.352 99.661C684.352 108.085 682.337 115.915 678.308 123.153C674.397 130.271 668.886 136.025 661.775 140.415C654.664 144.805 646.665 147 637.776 147ZM637.776 133.475C646.902 133.475 654.368 130.331 660.175 124.042C665.982 117.754 668.886 109.627 668.886 99.661C668.886 89.6949 665.982 81.5678 660.175 75.2797C654.368 68.9915 646.902 65.8475 637.776 65.8475C628.65 65.8475 621.184 68.9915 615.377 75.2797C609.57 81.5678 606.666 89.6949 606.666 99.661C606.666 109.627 609.57 117.754 615.377 124.042C621.184 130.331 628.65 133.475 637.776 133.475Z" fill="#242933"/>
<path d="M747.779 147C735.809 147 726.447 143.737 719.691 137.212C712.936 130.686 709.558 121.669 709.558 110.161V55.1695H724.669V110.161C724.669 117.873 726.624 123.746 730.535 127.78C734.446 131.695 740.253 133.653 747.957 133.653C755.542 133.653 761.23 131.695 765.023 127.78C768.934 123.746 770.889 117.873 770.889 110.161V55.1695H786V110.161C786 121.669 782.622 130.686 775.867 137.212C769.112 143.737 759.749 147 747.779 147Z" fill="#242933"/>
</svg>
