<svg width="444" height="27" viewBox="0 0 444 27" fill="none" xmlns="http://www.w3.org/2000/svg">
<path d="M5.61302 20.4624L5.73429 21.659L5.92485 20.4624L8.61009 7.87283H11.33L14.0499 20.6012L14.2404 21.8497L14.3963 20.4798L16.2154 7.87283H19.9574L16.302 26.6358H12.8199L9.9787 14.0809L9.94405 13.8555L9.9094 14.0636L7.12022 26.6358H3.65539L0 7.87283H3.72469L5.61302 20.4624Z" fill="#242933"/>
<path d="M32.1016 26.9827C30.7157 26.9827 29.451 26.7514 28.3076 26.289C27.1642 25.8266 26.1825 25.1908 25.3625 24.3815C24.5541 23.5723 23.9246 22.6185 23.4742 21.5202C23.0238 20.4104 22.7985 19.2139 22.7985 17.9306V17.2197C22.7985 15.7283 23.0353 14.3873 23.5088 13.1965C23.9939 12.0058 24.6349 10.9884 25.4318 10.1445C26.2403 9.30058 27.1758 8.65318 28.2383 8.20231C29.3124 7.75145 30.4385 7.52601 31.6165 7.52601C32.9794 7.52601 34.1805 7.75723 35.2199 8.21965C36.2594 8.67052 37.1256 9.31214 37.8186 10.1445C38.5231 10.9653 39.0544 11.9422 39.4124 13.0751C39.7704 14.2081 39.9494 15.4509 39.9494 16.8035V18.5549H26.9563C27.0256 19.2832 27.2047 19.9595 27.4934 20.5838C27.7821 21.2081 28.1575 21.7514 28.6195 22.2139C29.093 22.6647 29.6416 23.0231 30.2652 23.289C30.9005 23.5434 31.5934 23.6705 32.3441 23.6705C33.3951 23.6705 34.3595 23.4624 35.2373 23.0462C36.1266 22.6301 36.8484 22.0578 37.4028 21.3295L39.6549 23.4451C39.3546 23.896 38.9677 24.3353 38.4942 24.763C38.0207 25.1792 37.4663 25.5549 36.8311 25.8902C36.1959 26.2139 35.4798 26.474 34.6829 26.6705C33.8975 26.8786 33.0371 26.9827 32.1016 26.9827ZM31.5992 10.8728C31.0217 10.8728 30.4847 10.9769 29.9881 11.185C29.4914 11.3931 29.0468 11.6994 28.6541 12.104C28.2614 12.4971 27.9265 12.9827 27.6493 13.5607C27.3837 14.1272 27.1931 14.7746 27.0776 15.5029H35.8609V15.1908C35.8263 14.6358 35.7166 14.104 35.5318 13.5954C35.3585 13.0751 35.0987 12.6127 34.7522 12.2081C34.4057 11.8035 33.9668 11.4798 33.4356 11.237C32.9158 10.9942 32.3037 10.8728 31.5992 10.8728Z" fill="#242933"/>
<path d="M61.1542 17.4624C61.1542 18.8497 60.9925 20.1272 60.6691 21.2948C60.3573 22.4509 59.8895 23.4509 59.2658 24.2948C58.6422 25.1387 57.8741 25.7977 56.9617 26.2717C56.0493 26.7457 54.9983 26.9827 53.8087 26.9827C52.6653 26.9827 51.6721 26.7803 50.829 26.3757C49.9974 25.9711 49.2814 25.3873 48.6808 24.6243L48.4902 26.6358H44.7309V0H48.8714V9.65896C49.4604 8.97688 50.1533 8.45087 50.9503 8.08092C51.7472 7.71098 52.6884 7.52601 53.7741 7.52601C54.9752 7.52601 56.032 7.76301 56.9444 8.23699C57.8684 8.69942 58.6422 9.3526 59.2658 10.1965C59.8895 11.0405 60.3573 12.052 60.6691 13.2312C60.9925 14.3988 61.1542 15.6879 61.1542 17.0983V17.4624ZM57.0137 17.0983C57.0137 16.2659 56.9386 15.4798 56.7885 14.7399C56.6499 13.9884 56.4131 13.3295 56.0782 12.763C55.7548 12.1965 55.3159 11.7514 54.7616 11.4277C54.2072 11.0925 53.5258 10.9249 52.7173 10.9249C51.7356 10.9249 50.9329 11.1503 50.3093 11.6012C49.6856 12.052 49.2063 12.6416 48.8714 13.3699V21.1214C49.2063 21.8497 49.6856 22.4451 50.3093 22.9075C50.9445 23.3699 51.7587 23.6012 52.752 23.6012C53.5373 23.6012 54.2014 23.4451 54.7442 23.1329C55.2871 22.8092 55.7259 22.3699 56.0609 21.815C56.3958 21.2601 56.6383 20.6127 56.7885 19.8728C56.9386 19.1214 57.0137 18.3179 57.0137 17.4624V17.0983Z" fill="#242933"/>
<path d="M97.171 12.763H103.789V16.6647H97.171V24.104H93.1345V16.6647H86.4994V12.763H93.1345V5.72254H97.171V12.763Z" fill="#242933"/>
<path d="M138.108 23.6879C138.616 23.6879 139.107 23.6069 139.58 23.4451C140.066 23.2832 140.493 23.0578 140.862 22.7688C141.232 22.4798 141.521 22.1387 141.729 21.7457C141.948 21.3526 142.052 20.9249 142.04 20.4624H145.956C145.967 21.3642 145.759 22.2139 145.332 23.0116C144.916 23.7977 144.345 24.4855 143.617 25.0751C142.901 25.6647 142.069 26.1329 141.122 26.4798C140.175 26.8266 139.182 27 138.143 27C136.699 27 135.434 26.7514 134.349 26.2543C133.263 25.7572 132.356 25.0809 131.629 24.2254C130.901 23.3584 130.352 22.3584 129.983 21.2254C129.625 20.0809 129.446 18.8671 129.446 17.5838V16.9595C129.446 15.6763 129.625 14.4624 129.983 13.3179C130.352 12.1734 130.901 11.1734 131.629 10.3179C132.356 9.46243 133.263 8.78613 134.349 8.28902C135.434 7.78035 136.693 7.52601 138.125 7.52601C139.257 7.52601 140.302 7.69942 141.261 8.04624C142.231 8.39306 143.063 8.87861 143.756 9.50289C144.46 10.1272 145.003 10.8728 145.384 11.7399C145.777 12.6069 145.967 13.5549 145.956 14.5838H142.04C142.052 14.0751 141.96 13.5954 141.763 13.1445C141.579 12.6936 141.307 12.3006 140.949 11.9653C140.591 11.6301 140.169 11.3642 139.684 11.1676C139.199 10.9711 138.668 10.8728 138.091 10.8728C137.224 10.8728 136.503 11.052 135.925 11.4104C135.348 11.7572 134.886 12.2197 134.539 12.7977C134.193 13.3642 133.944 14.0116 133.794 14.7399C133.656 15.4682 133.586 16.2081 133.586 16.9595V17.5838C133.586 18.3468 133.656 19.0925 133.794 19.8208C133.944 20.5491 134.193 21.2023 134.539 21.7803C134.886 22.3468 135.348 22.8092 135.925 23.1676C136.503 23.5145 137.23 23.6879 138.108 23.6879Z" fill="#242933"/>
<path d="M164.094 7.52601C164.429 7.52601 164.764 7.53757 165.099 7.56069C165.434 7.58382 165.751 7.6185 166.052 7.66474C166.364 7.71098 166.647 7.76301 166.901 7.82081C167.155 7.86705 167.368 7.92486 167.542 7.99422L166.953 12.0694C165.682 11.7803 164.429 11.6358 163.193 11.6358C161.807 11.6358 160.687 11.9249 159.832 12.5029C158.989 13.0809 158.366 13.8844 157.961 14.9133V26.6358H153.821V7.87283H157.702L157.892 10.8035C158.654 9.78613 159.555 8.98844 160.595 8.4104C161.646 7.82081 162.812 7.52601 164.094 7.52601Z" fill="#242933"/>
<path d="M181.262 26.9827C179.876 26.9827 178.612 26.7514 177.468 26.289C176.325 25.8266 175.343 25.1908 174.523 24.3815C173.715 23.5723 173.085 22.6185 172.635 21.5202C172.184 20.4104 171.959 19.2139 171.959 17.9306V17.2197C171.959 15.7283 172.196 14.3873 172.67 13.1965C173.155 12.0058 173.796 10.9884 174.593 10.1445C175.401 9.30058 176.336 8.65318 177.399 8.20231C178.473 7.75145 179.599 7.52601 180.777 7.52601C182.14 7.52601 183.341 7.75723 184.381 8.21965C185.42 8.67052 186.286 9.31214 186.979 10.1445C187.684 10.9653 188.215 11.9422 188.573 13.0751C188.931 14.2081 189.11 15.4509 189.11 16.8035V18.5549H176.117C176.186 19.2832 176.365 19.9595 176.654 20.5838C176.943 21.2081 177.318 21.7514 177.78 22.2139C178.254 22.6647 178.802 23.0231 179.426 23.289C180.061 23.5434 180.754 23.6705 181.505 23.6705C182.556 23.6705 183.52 23.4624 184.398 23.0462C185.287 22.6301 186.009 22.0578 186.564 21.3295L188.816 23.4451C188.515 23.896 188.128 24.3353 187.655 24.763C187.181 25.1792 186.627 25.5549 185.992 25.8902C185.357 26.2139 184.641 26.474 183.844 26.6705C183.058 26.8786 182.198 26.9827 181.262 26.9827ZM180.76 10.8728C180.182 10.8728 179.645 10.9769 179.149 11.185C178.652 11.3931 178.207 11.6994 177.815 12.104C177.422 12.4971 177.087 12.9827 176.81 13.5607C176.544 14.1272 176.354 14.7746 176.238 15.5029H185.022V15.1908C184.987 14.6358 184.877 14.104 184.692 13.5954C184.519 13.0751 184.259 12.6127 183.913 12.2081C183.566 11.8035 183.128 11.4798 182.596 11.237C182.077 10.9942 181.464 10.8728 180.76 10.8728ZM181.817 0.589595H186.564L181.765 5.3237H178.612L181.817 0.589595Z" fill="#242933"/>
<path d="M205.793 26.6358C205.678 26.4046 205.58 26.1329 205.499 25.8208C205.429 25.5087 205.366 25.1734 205.308 24.815C205.019 25.1156 204.69 25.3988 204.321 25.6647C203.963 25.9191 203.558 26.1445 203.108 26.341C202.669 26.5376 202.19 26.6936 201.67 26.8092C201.162 26.9249 200.613 26.9827 200.024 26.9827C199.031 26.9827 198.13 26.8439 197.322 26.5665C196.525 26.2775 195.838 25.8844 195.26 25.3873C194.694 24.8786 194.255 24.2832 193.944 23.6012C193.632 22.9191 193.476 22.1792 193.476 21.3815C193.476 19.3699 194.221 17.8324 195.711 16.7688C197.212 15.7052 199.36 15.1734 202.155 15.1734H205.187V13.9422C205.187 12.948 204.852 12.1618 204.182 11.5838C203.512 10.9942 202.565 10.6994 201.341 10.6994C200.787 10.6994 200.302 10.7688 199.886 10.9075C199.47 11.0347 199.123 11.2139 198.846 11.4451C198.569 11.6763 198.361 11.948 198.223 12.2601C198.084 12.5723 198.015 12.9075 198.015 13.2659H193.874C193.874 12.5376 194.042 11.8324 194.377 11.1503C194.723 10.4566 195.226 9.84393 195.884 9.31214C196.542 8.76879 197.345 8.33526 198.292 8.01156C199.251 7.68786 200.342 7.52601 201.566 7.52601C202.675 7.52601 203.703 7.66474 204.65 7.9422C205.597 8.20809 206.417 8.61272 207.11 9.15607C207.803 9.68786 208.346 10.3584 208.738 11.1676C209.131 11.9653 209.327 12.9017 209.327 13.9769V22.3353C209.327 23.1561 209.385 23.9075 209.501 24.5896C209.628 25.2601 209.807 25.8439 210.038 26.341V26.6358H205.793ZM200.804 23.6358C201.335 23.6358 201.832 23.5723 202.294 23.4451C202.767 23.3064 203.189 23.1329 203.558 22.9249C203.94 22.7052 204.263 22.4566 204.529 22.1792C204.806 21.9017 205.025 21.6185 205.187 21.3295V17.8092H202.554C200.867 17.8092 199.62 18.0809 198.812 18.6243C198.015 19.1676 197.616 19.9422 197.616 20.948C197.616 21.3295 197.68 21.6879 197.807 22.0231C197.934 22.3468 198.124 22.6301 198.379 22.8728C198.644 23.104 198.973 23.289 199.366 23.4277C199.77 23.5665 200.25 23.6358 200.804 23.6358Z" fill="#242933"/>
<path d="M245.119 26.9827C243.814 26.9827 242.624 26.7399 241.55 26.2543C240.476 25.7688 239.552 25.1098 238.778 24.2775C238.016 23.4451 237.421 22.474 236.994 21.3642C236.578 20.2428 236.365 19.052 236.353 17.7919V17.0462C236.365 15.7052 236.584 14.4566 237.011 13.3006C237.45 12.1445 238.045 11.1387 238.796 10.2832C239.546 9.42775 240.43 8.75723 241.446 8.27168C242.463 7.77457 243.554 7.52601 244.721 7.52601C245.968 7.52601 247.071 7.75145 248.029 8.20231C248.988 8.65318 249.791 9.27168 250.438 10.0578C251.096 10.8324 251.592 11.7399 251.927 12.7803C252.274 13.8208 252.453 14.9364 252.464 16.1272V17.3931H238.432V17.7919C238.443 18.7746 238.611 19.7168 238.934 20.6185C239.258 21.5087 239.714 22.2948 240.303 22.9769C240.892 23.659 241.602 24.2081 242.434 24.6243C243.265 25.0289 244.189 25.2312 245.206 25.2312C246.361 25.2428 247.406 25.0289 248.341 24.5896C249.277 24.1503 250.074 23.5145 250.732 22.6821L252.049 23.6705C251.702 24.1561 251.292 24.6069 250.819 25.0231C250.345 25.4277 249.814 25.7746 249.225 26.0636C248.647 26.3526 248.012 26.578 247.319 26.7399C246.626 26.9017 245.893 26.9827 245.119 26.9827ZM244.721 9.2948C243.877 9.2948 243.104 9.45665 242.399 9.78035C241.695 10.0925 241.077 10.5318 240.545 11.0983C240.014 11.6647 239.575 12.3353 239.229 13.1098C238.882 13.8728 238.646 14.711 238.519 15.6243H250.386V15.3988C250.362 14.6243 250.218 13.8728 249.952 13.1445C249.698 12.4046 249.329 11.7514 248.844 11.185C248.37 10.6185 247.787 10.1618 247.094 9.81503C246.401 9.46821 245.61 9.2948 244.721 9.2948Z" fill="#242933"/>
<path d="M265.336 3.06936V7.87283H272.283V9.57225H265.336V21.3815C265.348 22.1098 265.458 22.7168 265.665 23.2023C265.885 23.6763 266.174 24.0636 266.532 24.3642C266.901 24.6532 267.329 24.8613 267.814 24.9884C268.31 25.1156 268.847 25.1792 269.425 25.1792C270.002 25.1792 270.591 25.1387 271.192 25.0578C271.804 24.9769 272.324 24.896 272.751 24.815L273.063 26.3931C272.566 26.5896 271.96 26.7341 271.244 26.8266C270.528 26.9306 269.8 26.9827 269.061 26.9827C268.229 26.9827 267.461 26.8786 266.757 26.6705C266.052 26.474 265.44 26.1561 264.921 25.7168C264.401 25.2659 263.991 24.6879 263.691 23.9827C263.39 23.2659 263.234 22.3931 263.223 21.3642V9.57225H258.008V7.87283H263.223V3.06936H265.336Z" fill="#242933"/>
<path d="M308.647 25.2312C309.34 25.2312 309.998 25.1329 310.622 24.9364C311.257 24.7283 311.817 24.4335 312.302 24.052C312.787 23.6705 313.18 23.2139 313.48 22.6821C313.792 22.1387 313.971 21.526 314.017 20.8439H316.009C315.963 21.7341 315.732 22.5549 315.316 23.3064C314.901 24.0578 314.358 24.7052 313.688 25.2486C313.018 25.7919 312.25 26.2197 311.384 26.5318C310.518 26.8324 309.605 26.9827 308.647 26.9827C307.272 26.9827 306.077 26.7225 305.061 26.2023C304.044 25.6821 303.195 24.9884 302.514 24.1214C301.844 23.2543 301.336 22.2601 300.989 21.1387C300.654 20.0058 300.487 18.8324 300.487 17.6185V16.8902C300.487 15.6763 300.654 14.5087 300.989 13.3873C301.336 12.2543 301.844 11.2543 302.514 10.3873C303.195 9.52023 304.044 8.82659 305.061 8.30636C306.077 7.78613 307.266 7.52601 308.629 7.52601C309.669 7.52601 310.627 7.69364 311.505 8.0289C312.394 8.3526 313.162 8.81503 313.809 9.41618C314.468 10.0058 314.987 10.711 315.368 11.5318C315.749 12.341 315.963 13.2312 316.009 14.2023H314.017C313.982 13.4971 313.821 12.8439 313.532 12.2428C313.243 11.6416 312.862 11.1214 312.389 10.6821C311.915 10.2428 311.355 9.90173 310.708 9.65896C310.073 9.41618 309.38 9.2948 308.629 9.2948C307.544 9.2948 306.614 9.51445 305.84 9.95376C305.078 10.3931 304.454 10.9711 303.969 11.6879C303.484 12.4046 303.126 13.2197 302.895 14.1329C302.676 15.0347 302.566 15.9538 302.566 16.8902V17.6185C302.566 18.5665 302.676 19.4971 302.895 20.4104C303.126 21.3237 303.484 22.1387 303.969 22.8555C304.454 23.5607 305.078 24.1329 305.84 24.5723C306.614 25.0116 307.549 25.2312 308.647 25.2312Z" fill="#242933"/>
<path d="M335.239 26.6358C335.112 26.2543 335.014 25.8324 334.945 25.3699C334.875 24.896 334.829 24.4162 334.806 23.9306C334.448 24.3699 334.032 24.7746 333.559 25.1445C333.085 25.5145 332.565 25.8382 332 26.1156C331.445 26.3815 330.845 26.5896 330.198 26.7399C329.551 26.9017 328.875 26.9827 328.171 26.9827C327.293 26.9827 326.473 26.8555 325.711 26.6012C324.96 26.3468 324.302 25.9884 323.736 25.526C323.182 25.0636 322.743 24.5087 322.419 23.8613C322.107 23.2023 321.952 22.4682 321.952 21.659C321.952 20.5838 322.188 19.6705 322.662 18.9191C323.135 18.1676 323.776 17.5607 324.585 17.0983C325.393 16.6243 326.329 16.2775 327.391 16.0578C328.454 15.8382 329.568 15.7283 330.735 15.7283H334.789V13.5954C334.777 12.8902 334.639 12.2717 334.373 11.7399C334.107 11.1965 333.743 10.7457 333.282 10.3873C332.831 10.0173 332.288 9.73988 331.653 9.55491C331.029 9.36994 330.348 9.27746 329.609 9.27746C328.939 9.27746 328.298 9.36416 327.686 9.53757C327.085 9.71098 326.548 9.95954 326.075 10.2832C325.613 10.6069 325.237 11.0058 324.949 11.4798C324.66 11.9422 324.504 12.4682 324.481 13.0578L322.402 13.0405C322.437 12.2428 322.645 11.5087 323.026 10.8382C323.418 10.1676 323.944 9.5896 324.602 9.10405C325.26 8.60694 326.023 8.21965 326.889 7.9422C327.767 7.66474 328.702 7.52601 329.695 7.52601C330.689 7.52601 331.618 7.65318 332.485 7.90751C333.362 8.16185 334.119 8.54335 334.754 9.05202C335.401 9.56069 335.909 10.1965 336.279 10.9595C336.66 11.7225 336.856 12.6127 336.868 13.6301V22.7168C336.868 23.341 336.92 23.9711 337.024 24.6069C337.139 25.2428 337.278 25.8497 337.439 26.4277L337.457 26.6358H335.239ZM328.396 25.1445C329.124 25.1561 329.817 25.0694 330.475 24.8844C331.145 24.6994 331.757 24.4451 332.311 24.1214C332.866 23.7861 333.357 23.3931 333.784 22.9422C334.211 22.4798 334.546 21.9769 334.789 21.4335V17.3237H331.012C330.1 17.3237 329.222 17.3931 328.379 17.5318C327.536 17.6705 326.791 17.9017 326.144 18.2254C325.497 18.5376 324.977 18.9595 324.585 19.4913C324.204 20.0231 324.013 20.6879 324.013 21.4855C324.013 22.052 324.129 22.5607 324.36 23.0116C324.591 23.4624 324.902 23.8497 325.295 24.1734C325.688 24.4855 326.15 24.7283 326.681 24.9017C327.212 25.0636 327.784 25.1445 328.396 25.1445Z" fill="#242933"/>
<path d="M351.662 26.9827C350.357 26.9827 349.168 26.7399 348.094 26.2543C347.02 25.7688 346.096 25.1098 345.322 24.2775C344.56 23.4451 343.965 22.474 343.537 21.3642C343.122 20.2428 342.908 19.052 342.896 17.7919V17.0462C342.908 15.7052 343.127 14.4566 343.555 13.3006C343.994 12.1445 344.588 11.1387 345.339 10.2832C346.09 9.42775 346.973 8.75723 347.99 8.27168C349.006 7.77457 350.097 7.52601 351.264 7.52601C352.511 7.52601 353.614 7.75145 354.573 8.20231C355.531 8.65318 356.334 9.27168 356.981 10.0578C357.639 10.8324 358.136 11.7399 358.471 12.7803C358.817 13.8208 358.996 14.9364 359.008 16.1272V17.3931H344.975V17.7919C344.987 18.7746 345.154 19.7168 345.478 20.6185C345.801 21.5087 346.257 22.2948 346.846 22.9769C347.435 23.659 348.146 24.2081 348.977 24.6243C349.809 25.0289 350.733 25.2312 351.749 25.2312C352.904 25.2428 353.949 25.0289 354.885 24.5896C355.82 24.1503 356.617 23.5145 357.275 22.6821L358.592 23.6705C358.246 24.1561 357.836 24.6069 357.362 25.0231C356.889 25.4277 356.357 25.7746 355.768 26.0636C355.191 26.3526 354.556 26.578 353.863 26.7399C353.17 26.9017 352.436 26.9827 351.662 26.9827ZM351.264 9.2948C350.421 9.2948 349.647 9.45665 348.943 9.78035C348.238 10.0925 347.62 10.5318 347.089 11.0983C346.558 11.6647 346.119 12.3353 345.772 13.1098C345.426 13.8728 345.189 14.711 345.062 15.6243H356.929V15.3988C356.906 14.6243 356.761 13.8728 356.496 13.1445C356.242 12.4046 355.872 11.7514 355.387 11.185C354.914 10.6185 354.33 10.1618 353.637 9.81503C352.944 9.46821 352.153 9.2948 351.264 9.2948Z" fill="#242933"/>
<path d="M371.88 3.06936V7.87283H378.827V9.57225H371.88V21.3815C371.891 22.1098 372.001 22.7168 372.209 23.2023C372.428 23.6763 372.717 24.0636 373.075 24.3642C373.445 24.6532 373.872 24.8613 374.357 24.9884C374.854 25.1156 375.391 25.1792 375.968 25.1792C376.546 25.1792 377.135 25.1387 377.735 25.0578C378.347 24.9769 378.867 24.896 379.294 24.815L379.606 26.3931C379.11 26.5896 378.503 26.7341 377.787 26.8266C377.071 26.9306 376.344 26.9827 375.604 26.9827C374.773 26.9827 374.005 26.8786 373.3 26.6705C372.596 26.474 371.984 26.1561 371.464 25.7168C370.944 25.2659 370.534 24.6879 370.234 23.9827C369.934 23.2659 369.778 22.3931 369.766 21.3642V9.57225H364.552V7.87283H369.766V3.06936H371.88Z" fill="#242933"/>
<path d="M394.28 26.9827C392.975 26.9827 391.785 26.7399 390.711 26.2543C389.637 25.7688 388.713 25.1098 387.939 24.2775C387.177 23.4451 386.582 22.474 386.155 21.3642C385.739 20.2428 385.525 19.052 385.514 17.7919V17.0462C385.525 15.7052 385.745 14.4566 386.172 13.3006C386.611 12.1445 387.206 11.1387 387.956 10.2832C388.707 9.42775 389.591 8.75723 390.607 8.27168C391.623 7.77457 392.715 7.52601 393.881 7.52601C395.129 7.52601 396.232 7.75145 397.19 8.20231C398.149 8.65318 398.951 9.27168 399.598 10.0578C400.257 10.8324 400.753 11.7399 401.088 12.7803C401.435 13.8208 401.614 14.9364 401.625 16.1272V17.3931H387.593V17.7919C387.604 18.7746 387.772 19.7168 388.095 20.6185C388.418 21.5087 388.875 22.2948 389.464 22.9769C390.053 23.659 390.763 24.2081 391.595 24.6243C392.426 25.0289 393.35 25.2312 394.366 25.2312C395.521 25.2428 396.567 25.0289 397.502 24.5896C398.438 24.1503 399.234 23.5145 399.893 22.6821L401.209 23.6705C400.863 24.1561 400.453 24.6069 399.979 25.0231C399.506 25.4277 398.975 25.7746 398.386 26.0636C397.808 26.3526 397.173 26.578 396.48 26.7399C395.787 26.9017 395.054 26.9827 394.28 26.9827ZM393.881 9.2948C393.038 9.2948 392.264 9.45665 391.56 9.78035C390.855 10.0925 390.237 10.5318 389.706 11.0983C389.175 11.6647 388.736 12.3353 388.39 13.1098C388.043 13.8728 387.806 14.711 387.679 15.6243H399.546V15.3988C399.523 14.6243 399.379 13.8728 399.113 13.1445C398.859 12.4046 398.49 11.7514 398.004 11.185C397.531 10.6185 396.948 10.1618 396.255 9.81503C395.562 9.46821 394.771 9.2948 393.881 9.2948Z" fill="#242933"/>
<path d="M419.989 7.52601C420.508 7.52601 421.028 7.56069 421.548 7.63006C422.068 7.68786 422.501 7.77457 422.847 7.89017L422.587 9.88439C422.102 9.78035 421.617 9.69942 421.132 9.64162C420.647 9.58382 420.15 9.55491 419.642 9.55491C417.887 9.55491 416.397 9.9711 415.173 10.8035C413.948 11.6358 413.088 12.9133 412.591 14.6358L412.609 26.6358H410.46V7.87283H412.453L412.591 11.1329V11.5145C413.354 10.2775 414.364 9.30636 415.623 8.60116C416.882 7.88439 418.337 7.52601 419.989 7.52601Z" fill="#242933"/>
<path d="M441.783 26.6358C441.655 26.2543 441.557 25.8324 441.488 25.3699C441.419 24.896 441.373 24.4162 441.349 23.9306C440.991 24.3699 440.576 24.7746 440.102 25.1445C439.629 25.5145 439.109 25.8382 438.543 26.1156C437.989 26.3815 437.388 26.5896 436.741 26.7399C436.094 26.9017 435.419 26.9827 434.714 26.9827C433.837 26.9827 433.017 26.8555 432.254 26.6012C431.504 26.3468 430.845 25.9884 430.279 25.526C429.725 25.0636 429.286 24.5087 428.963 23.8613C428.651 23.2023 428.495 22.4682 428.495 21.659C428.495 20.5838 428.732 19.6705 429.205 18.9191C429.679 18.1676 430.32 17.5607 431.128 17.0983C431.937 16.6243 432.872 16.2775 433.935 16.0578C434.997 15.8382 436.112 15.7283 437.278 15.7283H441.332V13.5954C441.321 12.8902 441.182 12.2717 440.916 11.7399C440.651 11.1965 440.287 10.7457 439.825 10.3873C439.374 10.0173 438.832 9.73988 438.196 9.55491C437.573 9.36994 436.891 9.27746 436.152 9.27746C435.482 9.27746 434.841 9.36416 434.229 9.53757C433.629 9.71098 433.092 9.95954 432.618 10.2832C432.156 10.6069 431.781 11.0058 431.492 11.4798C431.203 11.9422 431.047 12.4682 431.024 13.0578L428.945 13.0405C428.98 12.2428 429.188 11.5087 429.569 10.8382C429.962 10.1676 430.487 9.5896 431.145 9.10405C431.804 8.60694 432.566 8.21965 433.432 7.9422C434.31 7.66474 435.246 7.52601 436.239 7.52601C437.232 7.52601 438.162 7.65318 439.028 7.90751C439.906 8.16185 440.662 8.54335 441.297 9.05202C441.944 9.56069 442.452 10.1965 442.822 10.9595C443.203 11.7225 443.399 12.6127 443.411 13.6301V22.7168C443.411 23.341 443.463 23.9711 443.567 24.6069C443.682 25.2428 443.821 25.8497 443.983 26.4277L444 26.6358H441.783ZM434.939 25.1445C435.667 25.1561 436.36 25.0694 437.018 24.8844C437.688 24.6994 438.3 24.4451 438.855 24.1214C439.409 23.7861 439.9 23.3931 440.327 22.9422C440.755 22.4798 441.09 21.9769 441.332 21.4335V17.3237H437.555C436.643 17.3237 435.765 17.3931 434.922 17.5318C434.079 17.6705 433.334 17.9017 432.687 18.2254C432.041 18.5376 431.521 18.9595 431.128 19.4913C430.747 20.0231 430.556 20.6879 430.556 21.4855C430.556 22.052 430.672 22.5607 430.903 23.0116C431.134 23.4624 431.446 23.8497 431.838 24.1734C432.231 24.4855 432.693 24.7283 433.224 24.9017C433.756 25.0636 434.327 25.1445 434.939 25.1445Z" fill="#242933"/>
</svg>
